<mxfile host="Electron" modified="2024-09-15T05:44:43.397Z" agent="Mozilla/5.0 (Windows NT 10.0; Win64; x64) AppleWebKit/537.36 (KHTML, like Gecko) draw.io/24.5.1 Chrome/124.0.6367.207 Electron/30.0.6 Safari/537.36" etag="WRBsDw1Nwdm_kOBF3rcm" version="24.5.1" type="device">
  <diagram name="Page-1" id="_wC3Tqr4GCXyXskgvLdb">
    <mxGraphModel dx="733" dy="500" grid="1" gridSize="10" guides="1" tooltips="1" connect="1" arrows="1" fold="1" page="1" pageScale="1" pageWidth="827" pageHeight="1169" math="0" shadow="0">
      <root>
        <mxCell id="0" />
        <mxCell id="1" parent="0" />
        <mxCell id="K3ZFxRBjntWcx2X83sU7-2" value="set read&lt;div&gt;count 1&lt;/div&gt;" style="rounded=0;whiteSpace=wrap;html=1;dashed=1;dashPattern=1 1;" vertex="1" parent="1">
          <mxGeometry x="80" y="450" width="60" height="40" as="geometry" />
        </mxCell>
        <mxCell id="K3ZFxRBjntWcx2X83sU7-3" value="rx:" style="text;html=1;align=center;verticalAlign=middle;whiteSpace=wrap;rounded=0;" vertex="1" parent="1">
          <mxGeometry x="40" y="450" width="40" height="40" as="geometry" />
        </mxCell>
        <mxCell id="K3ZFxRBjntWcx2X83sU7-4" style="edgeStyle=orthogonalEdgeStyle;rounded=0;orthogonalLoop=1;jettySize=auto;html=1;entryX=0;entryY=0.5;entryDx=0;entryDy=0;exitX=0.5;exitY=1;exitDx=0;exitDy=0;" edge="1" parent="1" source="K3ZFxRBjntWcx2X83sU7-5" target="K3ZFxRBjntWcx2X83sU7-9">
          <mxGeometry relative="1" as="geometry">
            <mxPoint x="170" y="520" as="sourcePoint" />
          </mxGeometry>
        </mxCell>
        <mxCell id="K3ZFxRBjntWcx2X83sU7-5" value="send read address 1" style="rounded=0;whiteSpace=wrap;html=1;" vertex="1" parent="1">
          <mxGeometry x="140" y="450" width="60" height="40" as="geometry" />
        </mxCell>
        <mxCell id="K3ZFxRBjntWcx2X83sU7-6" value="&lt;font style=&quot;font-size: 8px;&quot;&gt;optional&lt;/font&gt;" style="text;html=1;align=center;verticalAlign=middle;whiteSpace=wrap;rounded=0;" vertex="1" parent="1">
          <mxGeometry x="210" y="430" width="30" height="10" as="geometry" />
        </mxCell>
        <mxCell id="K3ZFxRBjntWcx2X83sU7-7" value="" style="endArrow=none;html=1;rounded=0;strokeWidth=0.5;dashed=1;" edge="1" parent="1">
          <mxGeometry width="50" height="50" relative="1" as="geometry">
            <mxPoint x="110" y="450" as="sourcePoint" />
            <mxPoint x="200" y="440" as="targetPoint" />
          </mxGeometry>
        </mxCell>
        <mxCell id="K3ZFxRBjntWcx2X83sU7-8" value="tx:" style="text;html=1;align=center;verticalAlign=middle;whiteSpace=wrap;rounded=0;" vertex="1" parent="1">
          <mxGeometry x="40" y="490" width="40" height="40" as="geometry" />
        </mxCell>
        <mxCell id="K3ZFxRBjntWcx2X83sU7-9" value="&lt;font style=&quot;font-size: 10px;&quot;&gt;get read data 1:1&lt;/font&gt;" style="rounded=0;whiteSpace=wrap;html=1;" vertex="1" parent="1">
          <mxGeometry x="250" y="490" width="60" height="40" as="geometry" />
        </mxCell>
        <mxCell id="K3ZFxRBjntWcx2X83sU7-11" value="..." style="text;html=1;align=center;verticalAlign=middle;whiteSpace=wrap;rounded=0;" vertex="1" parent="1">
          <mxGeometry x="205" y="480" width="40" height="30" as="geometry" />
        </mxCell>
        <mxCell id="K3ZFxRBjntWcx2X83sU7-14" value="" style="shape=curlyBracket;whiteSpace=wrap;html=1;rounded=1;labelPosition=left;verticalLabelPosition=middle;align=right;verticalAlign=middle;rotation=-90;" vertex="1" parent="1">
          <mxGeometry x="330" y="460" width="20" height="180" as="geometry" />
        </mxCell>
        <mxCell id="K3ZFxRBjntWcx2X83sU7-15" value="&lt;i&gt;&amp;lt;read count 1&amp;gt;&lt;/i&gt;&amp;nbsp;&lt;span style=&quot;background-color: initial;&quot;&gt;messages&lt;/span&gt;" style="text;html=1;align=center;verticalAlign=middle;whiteSpace=wrap;rounded=0;" vertex="1" parent="1">
          <mxGeometry x="260" y="560" width="160" height="30" as="geometry" />
        </mxCell>
        <mxCell id="K3ZFxRBjntWcx2X83sU7-16" value="" style="endArrow=classic;html=1;rounded=0;entryX=1;entryY=1;entryDx=0;entryDy=0;" edge="1" parent="1" target="K3ZFxRBjntWcx2X83sU7-17">
          <mxGeometry width="50" height="50" relative="1" as="geometry">
            <mxPoint x="80" y="589.33" as="sourcePoint" />
            <mxPoint x="800" y="590" as="targetPoint" />
          </mxGeometry>
        </mxCell>
        <mxCell id="K3ZFxRBjntWcx2X83sU7-17" value="&lt;font style=&quot;font-size: 10px;&quot;&gt;time&lt;/font&gt;" style="text;html=1;align=center;verticalAlign=middle;whiteSpace=wrap;rounded=0;" vertex="1" parent="1">
          <mxGeometry x="600" y="560" width="80" height="30" as="geometry" />
        </mxCell>
        <mxCell id="K3ZFxRBjntWcx2X83sU7-18" value="set read&lt;div&gt;count 2&lt;/div&gt;" style="rounded=0;whiteSpace=wrap;html=1;dashed=1;dashPattern=1 1;" vertex="1" parent="1">
          <mxGeometry x="260" y="450" width="60" height="40" as="geometry" />
        </mxCell>
        <mxCell id="K3ZFxRBjntWcx2X83sU7-19" style="edgeStyle=orthogonalEdgeStyle;rounded=0;orthogonalLoop=1;jettySize=auto;html=1;entryX=0.5;entryY=0;entryDx=0;entryDy=0;" edge="1" parent="1" source="K3ZFxRBjntWcx2X83sU7-20" target="K3ZFxRBjntWcx2X83sU7-21">
          <mxGeometry relative="1" as="geometry">
            <mxPoint x="460" y="490" as="targetPoint" />
          </mxGeometry>
        </mxCell>
        <mxCell id="K3ZFxRBjntWcx2X83sU7-20" value="send read address 2" style="rounded=0;whiteSpace=wrap;html=1;" vertex="1" parent="1">
          <mxGeometry x="320" y="450" width="60" height="40" as="geometry" />
        </mxCell>
        <mxCell id="K3ZFxRBjntWcx2X83sU7-21" value="&lt;font style=&quot;font-size: 10px;&quot;&gt;get read data 2:1&lt;/font&gt;" style="rounded=0;whiteSpace=wrap;html=1;" vertex="1" parent="1">
          <mxGeometry x="430" y="490" width="60" height="40" as="geometry" />
        </mxCell>
        <mxCell id="K3ZFxRBjntWcx2X83sU7-22" value="" style="rounded=0;whiteSpace=wrap;html=1;" vertex="1" parent="1">
          <mxGeometry x="490" y="490" width="60" height="40" as="geometry" />
        </mxCell>
        <mxCell id="K3ZFxRBjntWcx2X83sU7-24" value="" style="rounded=0;whiteSpace=wrap;html=1;" vertex="1" parent="1">
          <mxGeometry x="550" y="490" width="60" height="40" as="geometry" />
        </mxCell>
        <mxCell id="K3ZFxRBjntWcx2X83sU7-25" value="" style="endArrow=none;html=1;rounded=0;strokeWidth=0.5;dashed=1;entryX=0;entryY=1;entryDx=0;entryDy=0;" edge="1" parent="1">
          <mxGeometry width="50" height="50" relative="1" as="geometry">
            <mxPoint x="245" y="441" as="sourcePoint" />
            <mxPoint x="310" y="450" as="targetPoint" />
          </mxGeometry>
        </mxCell>
        <mxCell id="K3ZFxRBjntWcx2X83sU7-26" value="" style="shape=curlyBracket;whiteSpace=wrap;html=1;rounded=1;labelPosition=left;verticalLabelPosition=middle;align=right;verticalAlign=middle;rotation=-90;" vertex="1" parent="1">
          <mxGeometry x="510" y="460" width="20" height="180" as="geometry" />
        </mxCell>
        <mxCell id="K3ZFxRBjntWcx2X83sU7-27" value="&lt;i&gt;&amp;lt;read count 2&amp;gt;&lt;/i&gt;&amp;nbsp;&lt;span style=&quot;background-color: initial;&quot;&gt;messages&lt;/span&gt;" style="text;html=1;align=center;verticalAlign=middle;whiteSpace=wrap;rounded=0;" vertex="1" parent="1">
          <mxGeometry x="440" y="560" width="160" height="30" as="geometry" />
        </mxCell>
        <mxCell id="K3ZFxRBjntWcx2X83sU7-28" value="" style="shape=curlyBracket;whiteSpace=wrap;html=1;rounded=1;labelPosition=left;verticalLabelPosition=middle;align=right;verticalAlign=middle;rotation=-90;" vertex="1" parent="1">
          <mxGeometry x="185" y="495" width="20" height="110" as="geometry" />
        </mxCell>
        <mxCell id="K3ZFxRBjntWcx2X83sU7-29" value="read latency" style="text;html=1;align=center;verticalAlign=middle;whiteSpace=wrap;rounded=0;" vertex="1" parent="1">
          <mxGeometry x="150" y="560" width="90" height="30" as="geometry" />
        </mxCell>
        <mxCell id="K3ZFxRBjntWcx2X83sU7-30" value="..." style="text;html=1;align=center;verticalAlign=middle;whiteSpace=wrap;rounded=0;" vertex="1" parent="1">
          <mxGeometry x="620" y="490" width="20" height="40" as="geometry" />
        </mxCell>
        <mxCell id="K3ZFxRBjntWcx2X83sU7-31" value="..." style="text;html=1;align=center;verticalAlign=middle;whiteSpace=wrap;rounded=0;" vertex="1" parent="1">
          <mxGeometry x="390" y="440" width="20" height="40" as="geometry" />
        </mxCell>
        <mxCell id="K3ZFxRBjntWcx2X83sU7-32" value="&lt;font style=&quot;font-size: 10px;&quot;&gt;get read data 2:2&lt;/font&gt;" style="text;html=1;align=center;verticalAlign=middle;whiteSpace=wrap;rounded=0;" vertex="1" parent="1">
          <mxGeometry x="490" y="490" width="50" height="40" as="geometry" />
        </mxCell>
        <mxCell id="K3ZFxRBjntWcx2X83sU7-33" value="&lt;font style=&quot;font-size: 10px;&quot;&gt;get read data 2:n&lt;/font&gt;" style="text;html=1;align=center;verticalAlign=middle;whiteSpace=wrap;rounded=0;" vertex="1" parent="1">
          <mxGeometry x="560" y="490" width="50" height="40" as="geometry" />
        </mxCell>
        <mxCell id="K3ZFxRBjntWcx2X83sU7-34" value="..." style="rounded=0;whiteSpace=wrap;html=1;strokeColor=none;" vertex="1" parent="1">
          <mxGeometry x="540" y="500" width="20" height="20" as="geometry" />
        </mxCell>
        <mxCell id="K3ZFxRBjntWcx2X83sU7-41" value="" style="rounded=0;whiteSpace=wrap;html=1;" vertex="1" parent="1">
          <mxGeometry x="310" y="490" width="60" height="40" as="geometry" />
        </mxCell>
        <mxCell id="K3ZFxRBjntWcx2X83sU7-42" value="" style="rounded=0;whiteSpace=wrap;html=1;" vertex="1" parent="1">
          <mxGeometry x="370" y="490" width="60" height="40" as="geometry" />
        </mxCell>
        <mxCell id="K3ZFxRBjntWcx2X83sU7-43" value="&lt;font style=&quot;font-size: 10px;&quot;&gt;get read data 1:2&lt;/font&gt;" style="text;html=1;align=center;verticalAlign=middle;whiteSpace=wrap;rounded=0;" vertex="1" parent="1">
          <mxGeometry x="310" y="490" width="50" height="40" as="geometry" />
        </mxCell>
        <mxCell id="K3ZFxRBjntWcx2X83sU7-44" value="&lt;font style=&quot;font-size: 10px;&quot;&gt;get read data 1:n&lt;/font&gt;" style="text;html=1;align=center;verticalAlign=middle;whiteSpace=wrap;rounded=0;" vertex="1" parent="1">
          <mxGeometry x="380" y="490" width="50" height="40" as="geometry" />
        </mxCell>
        <mxCell id="K3ZFxRBjntWcx2X83sU7-45" value="..." style="rounded=0;whiteSpace=wrap;html=1;strokeColor=none;" vertex="1" parent="1">
          <mxGeometry x="360" y="500" width="20" height="20" as="geometry" />
        </mxCell>
        <mxCell id="K3ZFxRBjntWcx2X83sU7-46" value="" style="shape=curlyBracket;whiteSpace=wrap;html=1;rounded=1;labelPosition=left;verticalLabelPosition=middle;align=right;verticalAlign=middle;rotation=90;" vertex="1" parent="1">
          <mxGeometry x="220" y="330" width="20" height="180" as="geometry" />
        </mxCell>
        <mxCell id="K3ZFxRBjntWcx2X83sU7-47" value="&lt;div&gt;time for at least&lt;/div&gt;&lt;i&gt;&amp;lt;read count 1&amp;gt;&lt;/i&gt;&amp;nbsp;&lt;span style=&quot;background-color: initial;&quot;&gt;messages&lt;/span&gt;" style="text;html=1;align=center;verticalAlign=middle;whiteSpace=wrap;rounded=0;" vertex="1" parent="1">
          <mxGeometry x="150" y="370" width="160" height="40" as="geometry" />
        </mxCell>
      </root>
    </mxGraphModel>
  </diagram>
</mxfile>
